<svg width="146" height="19" viewBox="0 0 146 19" fill="none" xmlns="http://www.w3.org/2000/svg">
<path d="M7.176 15.792C9.656 15.792 10.896 14.904 10.896 13.128C10.896 11.832 10.592 11.016 9.984 10.68C9.392 10.328 8.048 10.152 5.952 10.152L5.856 15.744C6.4 15.776 6.84 15.792 7.176 15.792ZM7.032 8.184C8.264 8.152 9.136 7.992 9.648 7.704C10.16 7.416 10.416 6.816 10.416 5.904C10.416 4.976 10.12 4.36 9.528 4.056C8.936 3.752 8.04 3.6 6.84 3.6H5.976C5.944 5.616 5.928 7.136 5.928 8.16L7.032 8.184ZM7.056 18.024H1.128L0.912 16.704C1.744 16.368 2.416 16.136 2.928 16.008C2.928 15.96 2.856 11.728 2.712 3.312C2.456 3.248 1.792 3.04 0.72 2.688L0.912 1.224H7.56C9.464 1.224 10.944 1.592 12 2.328C13.056 3.064 13.584 4.128 13.584 5.52C13.584 6.192 13.4 6.92 13.032 7.704C12.68 8.488 12.272 8.952 11.808 9.096C12.512 9.48 13.064 10.016 13.464 10.704C13.864 11.392 14.064 12.184 14.064 13.08C14.064 14.552 13.464 15.744 12.264 16.656C11.064 17.568 9.328 18.024 7.056 18.024ZM22.1972 7.44C21.6212 7.44 20.9652 7.584 20.2292 7.872C20.0212 8.192 19.8212 8.76 19.6292 9.576C19.4532 10.376 19.3652 11.184 19.3652 12C19.3652 13.504 19.5892 14.576 20.0372 15.216C20.4852 15.84 21.2052 16.152 22.1972 16.152C23.2052 16.152 23.9332 15.84 24.3812 15.216C24.8292 14.576 25.0532 13.488 25.0532 11.952C25.0532 10.4 24.8212 9.264 24.3572 8.544C23.9092 7.808 23.1892 7.44 22.1972 7.44ZM22.1972 5.52C24.0692 5.52 25.5732 6.096 26.7092 7.248C27.8612 8.384 28.4372 9.976 28.4372 12.024C28.4372 14.056 27.8692 15.608 26.7332 16.68C25.5972 17.752 24.0852 18.288 22.1972 18.288C20.3092 18.288 18.7972 17.752 17.6612 16.68C16.5412 15.608 15.9812 14.056 15.9812 12.024C15.9812 9.976 16.5492 8.384 17.6852 7.248C18.8212 6.096 20.3252 5.52 22.1972 5.52ZM35.1113 7.44C34.5353 7.44 33.8793 7.584 33.1433 7.872C32.9353 8.192 32.7353 8.76 32.5433 9.576C32.3673 10.376 32.2793 11.184 32.2793 12C32.2793 13.504 32.5033 14.576 32.9513 15.216C33.3993 15.84 34.1193 16.152 35.1113 16.152C36.1193 16.152 36.8473 15.84 37.2953 15.216C37.7433 14.576 37.9673 13.488 37.9673 11.952C37.9673 10.4 37.7353 9.264 37.2713 8.544C36.8233 7.808 36.1033 7.44 35.1113 7.44ZM35.1113 5.52C36.9833 5.52 38.4873 6.096 39.6233 7.248C40.7753 8.384 41.3513 9.976 41.3513 12.024C41.3513 14.056 40.7833 15.608 39.6473 16.68C38.5113 17.752 36.9993 18.288 35.1113 18.288C33.2233 18.288 31.7113 17.752 30.5753 16.68C29.4553 15.608 28.8953 14.056 28.8953 12.024C28.8953 9.976 29.4633 8.384 30.5993 7.248C31.7353 6.096 33.2393 5.52 35.1113 5.52ZM46.4893 13.848L46.4653 15.696L48.3373 15.912C48.3373 16.568 48.1533 17.264 47.7853 18H41.8093L41.5933 16.68C42.5853 16.312 43.3053 16.072 43.7533 15.96L43.2973 2.64C42.5453 2.56 41.9133 2.44 41.4013 2.28C41.4013 1.688 41.4573 1.112 41.5693 0.551999C42.5133 0.295999 44.1293 0.167999 46.4173 0.167999C46.7213 0.167999 46.9133 0.175999 46.9933 0.191999C46.9933 1.024 46.8893 1.752 46.6813 2.376C46.5853 6.216 46.5373 9.064 46.5373 10.92L49.3933 8.088L47.9053 7.896C47.9053 7.24 48.0893 6.544 48.4573 5.808H54.4333L54.6493 7.128C53.6573 7.496 52.9373 7.736 52.4893 7.848L49.8493 10.488L53.2093 15.696L55.0813 15.912C55.0813 16.568 54.8973 17.264 54.5293 18H51.4573L47.9053 12.432L46.4893 13.848ZM62.181 15.696C64.037 15.696 64.965 14.904 64.965 13.32C64.965 12.648 64.613 12.08 63.909 11.616C63.397 11.264 62.693 10.888 61.797 10.488C60.917 10.072 60.253 9.744 59.805 9.504C59.373 9.264 58.869 8.928 58.293 8.496C57.189 7.648 56.637 6.592 56.637 5.328C56.637 4.064 57.125 3.016 58.101 2.184C59.093 1.336 60.429 0.912 62.109 0.912C63.789 0.912 65.581 1.448 67.485 2.52C67.485 3.672 67.365 4.92 67.125 6.264C66.613 6.424 65.853 6.504 64.845 6.504L64.149 3.648C63.557 3.472 62.909 3.384 62.205 3.384C61.501 3.384 60.957 3.536 60.573 3.84C60.189 4.144 59.997 4.6 59.997 5.208C59.997 5.8 60.293 6.336 60.885 6.816C61.493 7.28 62.221 7.712 63.069 8.112C63.917 8.496 64.501 8.768 64.821 8.928C65.141 9.088 65.549 9.328 66.045 9.648C66.541 9.968 66.917 10.272 67.173 10.56C67.829 11.328 68.157 12.184 68.157 13.128C68.157 14.792 67.605 16.072 66.501 16.968C65.397 17.864 63.957 18.312 62.181 18.312C61.237 18.312 60.197 18.152 59.061 17.832C57.941 17.496 56.989 17.072 56.205 16.56C56.237 15.584 56.365 14.264 56.589 12.6C57.229 12.472 57.997 12.408 58.893 12.408L59.397 15.288C60.277 15.56 61.205 15.696 62.181 15.696ZM72.5308 18.288L72.0028 18.264C71.9068 18.088 71.7788 17.76 71.6188 17.28C71.4588 16.8 71.3708 16.44 71.3548 16.2C71.2748 14.616 71.1868 11.872 71.0908 7.968H69.4108L69.4828 6.6C69.8508 6.344 70.2908 6.112 70.8028 5.904L72.7468 2.832C73.3708 2.896 73.8588 3.064 74.2108 3.336L74.1868 5.616C75.1948 5.648 76.1308 5.744 76.9948 5.904C76.9948 6.544 76.7948 7.232 76.3948 7.968H74.1628C74.0988 11.328 74.0588 13.848 74.0428 15.528C74.6828 15.592 75.5548 15.776 76.6588 16.08L76.6348 17.328C76.3628 17.504 75.7548 17.712 74.8108 17.952C73.8828 18.176 73.1228 18.288 72.5308 18.288ZM84.3066 7.44C83.7306 7.44 83.0746 7.584 82.3386 7.872C82.1306 8.192 81.9306 8.76 81.7386 9.576C81.5626 10.376 81.4746 11.184 81.4746 12C81.4746 13.504 81.6986 14.576 82.1466 15.216C82.5946 15.84 83.3146 16.152 84.3066 16.152C85.3146 16.152 86.0426 15.84 86.4906 15.216C86.9386 14.576 87.1626 13.488 87.1626 11.952C87.1626 10.4 86.9306 9.264 86.4666 8.544C86.0186 7.808 85.2986 7.44 84.3066 7.44ZM84.3066 5.52C86.1786 5.52 87.6826 6.096 88.8186 7.248C89.9706 8.384 90.5466 9.976 90.5466 12.024C90.5466 14.056 89.9786 15.608 88.8426 16.68C87.7066 17.752 86.1946 18.288 84.3066 18.288C82.4186 18.288 80.9066 17.752 79.7706 16.68C78.6506 15.608 78.0906 14.056 78.0906 12.024C78.0906 9.976 78.6586 8.384 79.7946 7.248C80.9306 6.096 82.4346 5.52 84.3066 5.52ZM97.9646 8.112C97.9326 8.032 97.7726 7.992 97.4846 7.992C97.1966 7.992 96.7006 8.208 95.9966 8.64C95.9326 11.776 95.8926 14.128 95.8766 15.696L97.7486 15.936C97.7486 16.624 97.5646 17.312 97.1966 18H91.2206L91.0046 16.68C91.9966 16.312 92.7166 16.072 93.1646 15.96L92.9006 8.184C92.0686 8.12 91.3726 8 90.8126 7.824L90.9806 6.096C91.4126 5.904 92.9726 5.776 95.6606 5.712C95.8046 5.856 95.8766 6.136 95.8766 6.552C97.2846 5.864 98.1726 5.52 98.5406 5.52C98.9246 5.52 99.3886 5.616 99.9326 5.808C100.493 5.984 100.917 6.176 101.205 6.384V6.792C101.205 8.104 101.045 9.32 100.725 10.44C100.453 10.552 100.093 10.608 99.6446 10.608C99.1966 10.608 98.7806 10.584 98.3966 10.536C98.3486 10.328 98.2046 9.52 97.9646 8.112ZM106.658 5.712C106.962 5.712 107.154 5.72 107.234 5.736C107.234 6.52 107.098 7.248 106.826 7.92C106.762 11.376 106.722 13.968 106.706 15.696L108.578 15.912C108.578 16.568 108.394 17.264 108.026 18H102.05L101.834 16.68C102.826 16.312 103.546 16.072 103.994 15.96L103.73 8.184C102.786 8.088 102.09 7.968 101.642 7.824C101.642 7.424 101.698 6.848 101.81 6.096C102.754 5.84 104.37 5.712 106.658 5.712ZM106.658 1.176C106.802 1.896 106.874 2.448 106.874 2.832C106.874 3.2 106.842 3.616 106.778 4.08C106.138 4.224 105.594 4.296 105.146 4.296C104.714 4.296 104.186 4.272 103.562 4.224C103.418 3.504 103.346 2.96 103.346 2.592C103.346 2.208 103.378 1.784 103.442 1.32C104.082 1.176 104.618 1.104 105.05 1.104C105.498 1.104 106.034 1.128 106.658 1.176ZM120.521 5.712C120.825 5.712 121.017 5.72 121.097 5.736C121.097 6.552 120.961 7.256 120.689 7.848C120.593 11.368 120.513 13.968 120.449 15.648C121.169 15.712 121.801 15.832 122.345 16.008L122.297 17.688C121.321 17.992 120.481 18.144 119.777 18.144C119.073 18.144 118.593 18.128 118.337 18.096C118.145 17.712 117.985 17.328 117.857 16.944C116.529 17.84 115.569 18.288 114.977 18.288C112.113 18.288 110.681 16.84 110.681 13.944C110.681 13.16 110.745 11.232 110.873 8.16C110.025 8.16 109.249 8.048 108.545 7.824C108.545 7.424 108.601 6.848 108.713 6.096C109.657 5.84 111.273 5.712 113.561 5.712C113.865 5.712 114.057 5.72 114.137 5.736C114.137 6.52 114.001 7.248 113.729 7.92V12.768C113.729 13.792 113.833 14.544 114.041 15.024C114.265 15.488 114.729 15.72 115.433 15.72C116.153 15.72 116.889 15.472 117.641 14.976L117.497 8.16C116.793 8.128 116.129 8.016 115.505 7.824C115.505 7.424 115.561 6.848 115.673 6.096C116.617 5.84 118.233 5.712 120.521 5.712ZM140.218 11.064C140.186 9.944 140.05 9.168 139.81 8.736C139.586 8.304 139.058 8.088 138.226 8.088C137.41 8.088 136.65 8.264 135.946 8.616C135.946 10.664 135.842 13.024 135.634 15.696L137.53 15.912C137.53 16.568 137.346 17.264 136.978 18H131.002L130.786 16.68C131.618 16.376 132.346 16.136 132.97 15.96L132.778 10.968C132.746 9.928 132.618 9.192 132.394 8.76C132.186 8.312 131.778 8.088 131.17 8.088C130.85 8.088 130.386 8.144 129.778 8.256C129.17 8.368 128.706 8.488 128.386 8.616C128.386 8.664 128.314 11.024 128.17 15.696L130.042 15.912C130.042 16.616 129.858 17.312 129.49 18H123.514L123.298 16.68C124.242 16.312 124.962 16.072 125.458 15.96L125.146 8.208C124.49 8.144 123.858 8.024 123.25 7.848L123.37 6.12C123.642 6.04 124.226 5.944 125.122 5.832C126.018 5.72 126.698 5.664 127.162 5.664C127.226 5.712 127.346 5.864 127.522 6.12C127.698 6.36 127.818 6.552 127.882 6.696C128.426 6.424 129.082 6.16 129.85 5.904C130.634 5.648 131.114 5.52 131.29 5.52C132.986 5.52 134.226 5.96 135.01 6.84C135.618 6.52 136.354 6.224 137.218 5.952C138.082 5.664 138.618 5.52 138.826 5.52C140.346 5.52 141.482 5.88 142.234 6.6C142.986 7.32 143.362 8.52 143.362 10.2C143.362 11.128 143.29 12.96 143.146 15.696L145.018 15.912C145.018 16.616 144.834 17.312 144.466 18H138.514L138.298 16.68C139.05 16.376 139.738 16.136 140.362 15.96C140.346 15.592 140.33 15.072 140.314 14.4C140.282 13.296 140.25 12.184 140.218 11.064Z" fill="#5B5A62"/>
</svg>
